<svg width="68" height="87" viewBox="0 0 68 87" fill="none" xmlns="http://www.w3.org/2000/svg">
<g clip-path="url(#clip0_5_1645)">
<path d="M7.24885 40.7766C24.0216 39.0238 40.9382 41.7144 57.6698 39.29C58.4515 39.1753 58.1182 37.9918 57.3407 38.1064C40.7284 40.5104 23.9064 37.8075 7.24885 39.548C6.46719 39.6299 6.45896 40.8585 7.24885 40.7766Z" fill="#727272"/>
<path d="M7.08428 39.5727C5.44692 40.0806 5.65261 42.2101 6.52066 43.3404C7.9441 45.1915 11.1407 45.2324 13.2265 45.0358C14.0122 44.9621 14.0163 43.7335 13.2265 43.8073C11.8771 43.9342 10.4783 43.9219 9.16596 43.537C8.48303 43.3363 7.76309 43.0537 7.37226 42.4149C7.17067 42.0831 6.78396 40.9528 7.4134 40.7604C8.17037 40.5228 7.84537 39.3352 7.08428 39.5727Z" fill="#727272"/>
<path d="M54.7818 39.6751C55.6498 39.6218 56.4891 39.4744 57.353 39.3597C58.723 39.1755 59.4265 39.544 59.6651 40.9774C59.8626 42.1691 59.1097 42.5172 58.0483 42.853C57.5464 43.0127 57.0198 43.111 56.5014 43.2134C55.115 43.4837 53.7245 43.6188 52.3134 43.668C51.5235 43.6966 51.5194 44.9252 52.3134 44.8966C54.7201 44.8106 61.4794 44.7205 61.2161 40.9323C61.1502 39.9863 60.2328 38.6799 59.373 38.254C58.0894 37.6152 56.09 38.3646 54.7777 38.4465C53.9919 38.4956 53.9878 39.7242 54.7818 39.6751Z" fill="#727272"/>
<path d="M9.05488 44.7736C8.8862 47.3741 5.92414 48.8443 4.3526 50.6298C3.1184 52.0345 2.1475 53.6521 1.44401 55.3762C-0.0699346 59.0702 -0.357913 63.2105 0.411401 67.1051C1.99528 75.095 8.05929 81.6884 15.6331 84.5182C16.3778 84.7967 16.6987 83.6091 15.9623 83.3347C8.09632 80.3943 1.98294 73.0269 1.30002 64.5783C0.975017 60.5649 1.82661 56.3878 4.07696 53.0092C5.94471 50.208 10.0546 48.4143 10.2891 44.7736C10.3384 43.9873 9.10425 43.9873 9.05488 44.7736Z" fill="#727272"/>
<path d="M55.8226 44.2495C55.8226 47.4807 58.18 49.5079 60.5784 51.3139C62.6395 52.8619 64.2357 54.369 65.2519 56.7975C66.1364 58.9065 66.626 61.1835 66.737 63.4646C67.1402 71.8558 62.2446 79.645 54.7201 83.3103C54.0084 83.6584 54.6296 84.7191 55.3413 84.371C62.331 80.9678 67.2595 74.0509 67.9177 66.3026C68.251 62.3834 67.5681 58.067 65.5687 54.6311C63.3677 50.8429 57.0568 49.1065 57.0527 44.2495C57.0568 43.4591 55.8226 43.4591 55.8226 44.2495Z" fill="#727272"/>
<path d="M15.267 83.6172C14.4689 85.3823 15.9005 86.9058 17.6778 86.9877C19.6072 87.0819 21.6436 86.6355 23.5772 86.5536C25.8193 86.4553 28.0615 86.4512 30.3036 86.4839C38.6714 86.6109 47.0351 87.2457 55.3659 86.1154C55.6498 86.0785 55.7938 85.7673 55.8185 85.5215C55.8843 84.8335 55.8267 84.3257 55.6251 83.6787C55.3906 82.9251 54.2017 83.2487 54.4362 84.0063C54.646 84.5018 54.6954 85.0096 54.5843 85.5215C54.7365 85.325 54.8846 85.1284 55.0368 84.9277C48.5408 85.8082 41.9873 85.5871 35.4543 85.3823C32.2865 85.284 29.1146 85.1939 25.9469 85.2472C24.4987 85.2717 23.0506 85.3291 21.6025 85.4274C20.8126 85.4806 20.0268 85.5543 19.2411 85.6321C18.661 85.6895 15.4439 86.185 16.3284 84.2274C16.6534 83.519 15.592 82.8965 15.267 83.6172Z" fill="#727272"/>
<path d="M7.08016 51.2237C2.05287 57.3789 1.66205 65.9708 6.17508 72.5233C6.39724 72.8468 6.93205 72.5396 6.7099 72.212C2.36142 65.9012 2.66174 57.6042 7.52035 51.6537C7.76308 51.3548 7.33111 50.9166 7.08016 51.2237Z" fill="#727272"/>
<path d="M7.41339 74.8043C7.81656 75.3858 8.27733 75.9223 8.79158 76.4096C9.07956 76.6799 9.51564 76.2499 9.22766 75.9755C8.75044 75.5251 8.32258 75.0336 7.9441 74.4971C7.72194 74.1736 7.18712 74.4767 7.41339 74.8043Z" fill="#727272"/>
<path d="M10.865 78.3387C11.2641 78.3387 11.2641 77.7244 10.865 77.7244C10.466 77.7244 10.466 78.3387 10.865 78.3387Z" fill="#727272"/>
<path d="M54.6296 44.2822C54.3128 45.4617 54.0413 46.6493 54.5062 47.8287C54.9381 48.9222 55.8144 49.9091 56.559 50.8142C58.3445 52.9765 61.9977 55.1593 62.1705 58.1734C62.1911 58.5666 62.8082 58.5707 62.7876 58.1734C62.6601 55.9169 60.9898 54.4713 59.4512 53.0052C58.4597 52.0592 57.5258 51.0558 56.6701 49.9829C56.0942 49.258 55.4442 48.4922 55.1109 47.6199C54.7036 46.5592 54.9381 45.5149 55.222 44.4501C55.3248 44.0652 54.7283 43.9014 54.6296 44.2822Z" fill="#727272"/>
<path d="M62.4379 59.5987C62.5243 60.385 62.6107 61.1713 62.6971 61.9576C62.7382 62.3467 63.3594 62.3508 63.3142 61.9576C63.2278 61.1713 63.1414 60.385 63.055 59.5987C63.0139 59.2097 62.3968 59.2056 62.4379 59.5987Z" fill="#727272"/>
<path d="M62.4955 63.5752C62.5408 63.8046 62.5037 64.0216 62.4174 64.2346C62.3556 64.3902 62.4873 64.5704 62.6313 64.6113C62.8082 64.6605 62.9481 64.5499 63.0098 64.3984C63.1373 64.0789 63.1538 63.7472 63.0879 63.4114C63.018 63.0264 62.4215 63.1903 62.4955 63.5752Z" fill="#727272"/>
<path d="M35.7423 59.0825C37.2151 56.2977 39.9879 54.4753 43.2091 54.635C47.0434 54.8234 51.0751 58.1447 48.3887 62.068C46.813 64.3654 43.9826 65.852 41.8968 67.6621C39.5806 69.6729 37.4619 71.8884 35.5078 74.2555C35.0059 74.8616 35.8739 75.7339 36.3799 75.1237C39.3585 71.5158 42.7278 68.4648 46.4304 65.6145C48.9029 63.7061 51.6387 60.8107 50.1371 57.4567C48.8947 54.6801 45.4636 53.3164 42.5715 53.3983C39.1651 53.4965 36.2442 55.495 34.6726 58.46C34.3065 59.1603 35.372 59.7828 35.7423 59.0825Z" fill="#727272"/>
<path d="M35.4502 58.1285C32.8131 55.1758 29.5219 52.133 25.2516 52.3541C22.0839 52.518 19.3563 54.9096 18.8996 58.0589C18.336 61.8961 21.2158 65.2625 24.0216 67.4862C27.4691 70.2177 32.6691 71.1637 35.2486 74.8659C35.697 75.5129 36.7667 74.8986 36.3141 74.2475C34.7056 71.9378 32.3647 70.7501 29.8799 69.5543C26.7203 68.035 23.606 66.1552 21.5737 63.223C19.3069 59.9591 19.6813 54.9669 24.075 53.7711C28.3741 52.604 31.9944 56.1095 34.5739 58.9967C35.1046 59.5905 35.9768 58.7182 35.4502 58.1285Z" fill="#727272"/>
</g>
<g clip-path="url(#clip1_5_1645)">
<path d="M31.4719 12.629C30.283 14.782 28.4688 16.507 26.1404 17.4C25.2313 17.7507 24.0342 17.7303 24.1535 16.4866C24.2275 15.7118 25.0667 15.039 25.6756 14.676C26.7123 14.0562 28.041 13.8523 29.1558 13.3711C29.8799 13.0571 29.2546 12.001 28.5347 12.315C26.5436 13.1754 24.3633 13.3793 23.232 15.4671C22.6273 16.5844 22.4298 18.1381 23.7915 18.7742C25.2683 19.4634 27.3005 18.3501 28.5264 17.5672C30.2295 16.4825 31.5665 15.0022 32.5332 13.2447C32.9199 12.5556 31.8545 11.9357 31.4719 12.629Z" fill="#46A358"/>
<path d="M28.8967 12.119C27.3992 12.2821 25.9142 12.2903 24.4291 12.013C23.8861 11.9111 23.3472 11.7724 22.8206 11.6052C22.3763 11.4747 21.9485 11.3157 21.5248 11.1241C20.8954 10.333 20.9571 9.89256 21.7181 9.7947C23.9478 8.09018 27.4321 9.88033 29.6207 10.7081C30.3653 10.9895 30.6861 9.80693 29.9498 9.52964C28.0451 8.80787 25.9553 7.72318 23.8614 7.95561C22.6602 8.0861 19.8916 8.60398 19.5707 10.1005C18.8302 13.5667 27.1072 13.5422 28.8967 13.3465C29.6783 13.2567 29.6865 12.0334 28.8967 12.119Z" fill="#46A358"/>
<path d="M30.353 9.54986C28.4812 8.07778 26.8192 5.78606 26.9097 3.30268C26.9509 2.1976 27.6584 1.72865 28.6828 2.22614C29.2463 2.49936 29.6372 3.19666 29.9457 3.72269C30.6615 4.95419 30.9618 6.36102 31.2251 7.7434C31.3732 8.5141 32.5621 8.18788 32.414 7.41717C32.019 5.35381 31.4554 3.20481 29.9169 1.66341C29.0078 0.75406 27.4939 -0.289855 26.4243 0.933483C23.9231 3.79202 27.1977 8.61604 29.4808 10.4144C30.0979 10.8996 30.9782 10.0392 30.353 9.54986Z" fill="#46A358"/>
<path d="M32.3852 7.75588C32.6567 5.79038 33.5206 2.05104 35.7996 1.41491C37.9182 0.827707 37.7084 4.20412 37.116 5.32143C36.5195 6.4469 35.3471 7.50305 34.4955 8.44502C33.969 9.02815 34.837 9.89672 35.3676 9.30951C36.5894 7.95569 38.416 6.40205 38.6792 4.49772C38.8849 3.02156 38.7738 0.791007 37.1325 0.13856C35.635 -0.456797 34.1541 0.897029 33.3025 1.96133C32.0478 3.52721 31.4637 5.46823 31.1922 7.4215C31.0852 8.20035 32.2741 8.53473 32.3852 7.75588Z" fill="#46A358"/>
<path d="M35.454 9.46471C36.8897 8.274 39.5554 7.4462 41.3079 8.51866C43.5787 9.91327 40.3617 10.7492 39.3004 10.8185C38.165 10.896 37.0296 10.8267 35.9024 10.6962C35.1167 10.6065 35.1208 11.8298 35.9024 11.9195C37.7454 12.1316 40.2342 12.4048 41.9497 11.4995C43.0151 10.9368 43.7803 9.57481 43.1262 8.42895C42.3939 7.14445 40.3329 6.83454 38.996 6.87124C37.3381 6.92017 35.8448 7.5563 34.586 8.60022C33.973 9.10587 34.8493 9.97036 35.454 9.46471Z" fill="#46A358"/>
<path d="M35.5857 11.8786C36.8568 12.3435 38.1198 13.0449 38.8438 14.2274C39.7488 15.7117 39.7694 18.4439 37.1366 17.9341C34.8205 17.4856 33.1462 15.0471 32.6731 12.9307C32.5003 12.1641 31.3115 12.4862 31.4842 13.2569C31.9038 15.1408 32.9529 16.8046 34.5243 17.9586C35.7585 18.8679 37.9264 19.9526 39.3786 18.921C40.8719 17.8607 40.8719 15.6669 40.1972 14.1581C39.3991 12.3802 37.7002 11.3485 35.923 10.6961C35.1661 10.4269 34.8452 11.6095 35.5857 11.8786Z" fill="#46A358"/>
<path d="M23.1045 15.2467C19.5008 17.3998 16.8433 19.7976 16.2139 24.1119C15.5269 28.7972 16.6253 33.6947 17.629 38.2577C17.7977 39.0284 18.9866 38.7022 18.8179 37.9315C17.9293 33.8945 17.0202 29.7107 17.2958 25.5554C17.5961 21.025 19.9657 18.5498 23.7215 16.307C24.4044 15.8992 23.7874 14.839 23.1045 15.2467Z" fill="#46A358"/>
<path d="M39.0083 13.8645C44.0477 14.2559 47.6143 18.2685 48.9678 22.8642C50.4405 27.8676 49.6178 33.1361 48.8156 38.1763C48.6922 38.947 49.881 39.2773 50.0045 38.5025C50.9424 32.5897 51.8844 26.3099 49.4614 20.6091C47.6267 16.2908 43.8173 13.0163 39.0083 12.6411C38.2144 12.58 38.2185 13.8033 39.0083 13.8645Z" fill="#46A358"/>
<path d="M24.3263 17.7833C18.2996 22.1302 20.2536 31.9577 21.4713 38.0662C21.6235 38.8369 22.8165 38.5107 22.6602 37.74C22.0225 34.543 21.4302 31.3093 21.4919 28.039C21.5536 24.8583 22.1583 20.8498 24.9474 18.8395C25.5851 18.3787 24.9721 17.3184 24.3263 17.7833Z" fill="#46A358"/>
<path d="M31.0934 13.8278C28.8514 17.2491 27.4034 21.074 26.8768 25.1273C26.6012 27.2519 26.5806 29.405 26.8357 31.5336C27.1113 33.8579 27.8641 36.0925 28.1438 38.4169C28.2343 39.1876 29.4726 39.1998 29.378 38.4169C28.8926 34.3595 27.642 30.6242 27.9711 26.473C28.3125 22.1628 29.7935 18.0605 32.163 14.4435C32.5908 13.7829 31.5254 13.1713 31.0934 13.8278Z" fill="#46A358"/>
<path d="M34.1088 17.6079C35.9477 20.6173 36.3344 24.0222 36.6552 27.4598C36.9885 31.036 37.26 34.6163 37.4903 38.2007C37.5397 38.9836 38.7738 38.9877 38.7245 38.2007C38.4653 34.1433 38.1732 30.0859 37.7536 26.0407C37.4245 22.8641 36.8692 19.7528 35.1743 16.988C34.7629 16.3193 33.6933 16.9309 34.1088 17.6079Z" fill="#46A358"/>
<path d="M39.7241 18.1789C44.3192 23.9082 44.4714 31.2237 44.3069 38.2049C44.2904 38.9919 45.5245 38.9919 45.541 38.2049C45.7138 30.8404 45.4176 23.3291 40.5962 17.3144C40.1026 16.6986 39.2346 17.5713 39.7241 18.1789Z" fill="#46A358"/>
<path d="M31.9532 19.6712C31.8833 19.9444 31.8174 20.2136 31.7475 20.4868C31.6529 20.8701 32.2453 21.0332 32.344 20.6499C32.4139 20.3767 32.4798 20.1075 32.5497 19.8343C32.6443 19.4551 32.0519 19.292 31.9532 19.6712Z" fill="#46A358"/>
<path d="M33.286 21.7957C33.286 22.1015 33.286 22.4074 33.286 22.7132C33.286 23.1087 33.9031 23.1087 33.9031 22.7132C33.9031 22.4074 33.9031 22.1015 33.9031 21.7957C33.9031 21.4001 33.286 21.4001 33.286 21.7957Z" fill="#46A358"/>
<path d="M30.3077 23.7328C30.2748 24.1732 30.2378 24.6177 30.2049 25.0581C30.1761 25.4496 30.7931 25.4496 30.8219 25.0581C30.8548 24.6177 30.8919 24.1732 30.9248 23.7328C30.9536 23.3413 30.3365 23.3413 30.3077 23.7328Z" fill="#46A358"/>
<path d="M34.3145 25.8733C34.3145 26.2811 34.3145 26.6889 34.3145 27.0967C34.3145 27.4922 34.9316 27.4922 34.9316 27.0967C34.9316 26.6889 34.9316 26.2811 34.9316 25.8733C34.9316 25.4778 34.3145 25.4778 34.3145 25.8733Z" fill="#46A358"/>
<path d="M31.9491 28.1162C31.9491 28.5566 31.9491 29.0011 31.9491 29.4415C31.9491 29.8371 32.5662 29.8371 32.5662 29.4415C32.5662 29.0011 32.5662 28.5566 32.5662 28.1162C32.5662 27.7207 31.9491 27.7207 31.9491 28.1162Z" fill="#46A358"/>
<path d="M30.6121 32.6018C30.6121 33.2135 30.6121 33.8252 30.6121 34.4368C30.6121 34.8324 31.2292 34.8324 31.2292 34.4368C31.2292 33.8252 31.2292 33.2135 31.2292 32.6018C31.2292 32.2063 30.6121 32.2063 30.6121 32.6018Z" fill="#46A358"/>
<path d="M28.7815 28.6014C28.8514 29.0092 28.9255 29.417 28.9954 29.8247C29.0612 30.2121 29.6577 30.049 29.5919 29.6616C29.522 29.2539 29.4479 28.8461 29.378 28.4383C29.308 28.055 28.7115 28.2181 28.7815 28.6014Z" fill="#46A358"/>
<path d="M33.5 34.6408C33.5329 35.0486 33.5699 35.4564 33.6028 35.8642C33.6357 36.2556 34.2528 36.2556 34.2199 35.8642C34.187 35.4564 34.15 35.0486 34.117 34.6408C34.0841 34.2494 33.4629 34.2453 33.5 34.6408Z" fill="#46A358"/>
<path d="M35.3471 30.0532C35.38 30.461 35.417 30.8687 35.4499 31.2765C35.4828 31.6639 36.0999 31.668 36.067 31.2765C36.0341 30.8687 35.997 30.461 35.9641 30.0532C35.9312 29.6617 35.3142 29.6576 35.3471 30.0532Z" fill="#46A358"/>
<path d="M42.431 16.4008C42.9082 16.8127 43.3854 17.2245 43.8626 17.6323C44.1629 17.8892 44.5989 17.457 44.2986 17.2001C43.8214 16.7882 43.3442 16.3764 42.867 15.9686C42.5708 15.7117 42.1307 16.1398 42.431 16.4008Z" fill="#46A358"/>
<path d="M42.6902 19.8058C42.9576 20.2829 43.2291 20.764 43.4965 21.2411C43.6898 21.5837 44.2246 21.2779 44.0312 20.9312C43.7638 20.4541 43.4923 19.973 43.2249 19.4959C43.0275 19.1533 42.4968 19.4632 42.6902 19.8058Z" fill="#46A358"/>
<path d="M45.1625 20.0055C45.467 20.4173 45.7714 20.8292 46.0758 21.2369C46.3062 21.5509 46.8451 21.2451 46.6106 20.927C46.3062 20.5152 46.0017 20.1033 45.6973 19.6955C45.4628 19.3856 44.928 19.6874 45.1625 20.0055Z" fill="#46A358"/>
<path d="M46.6846 25.3393C46.7875 26.0529 46.8944 26.7665 46.9973 27.4801C47.0549 27.8675 47.6473 27.7044 47.5938 27.317C47.4909 26.6034 47.384 25.8898 47.2811 25.1761C47.2194 24.7888 46.627 24.9559 46.6846 25.3393Z" fill="#46A358"/>
<path d="M44.6113 23.5083C44.7141 23.8468 44.817 24.1893 44.9198 24.5278C45.035 24.9029 45.6274 24.7439 45.5163 24.3647C45.4135 24.0262 45.3106 23.6837 45.2078 23.3452C45.0926 22.9701 44.4961 23.1291 44.6113 23.5083Z" fill="#46A358"/>
<path d="M47.8817 31.1746C47.927 31.6599 47.9188 32.1452 47.8406 32.6263C47.7789 33.0096 48.3713 33.1768 48.4371 32.7894C48.5235 32.2512 48.5523 31.717 48.5029 31.1746C48.4618 30.7873 47.8447 30.7832 47.8817 31.1746Z" fill="#46A358"/>
<path d="M46.4501 33.1116C46.4501 33.4868 46.4501 33.8578 46.4501 34.233C46.4501 34.6285 47.0672 34.6285 47.0672 34.233C47.0672 33.8578 47.0672 33.4868 47.0672 33.1116C47.0672 32.7161 46.4501 32.7161 46.4501 33.1116Z" fill="#46A358"/>
<path d="M47.0878 22.8928C47.2565 23.3006 47.4292 23.7084 47.5979 24.1162C47.6637 24.2711 47.8036 24.3771 47.9764 24.3282C48.1204 24.2915 48.2561 24.1039 48.1903 23.953C48.0216 23.5453 47.8488 23.1375 47.6802 22.7297C47.6144 22.5747 47.4745 22.4687 47.3017 22.5177C47.1577 22.5544 47.0261 22.7419 47.0878 22.8928Z" fill="#46A358"/>
<path d="M45.9359 29.9512C45.9359 30.1877 45.9359 30.4283 45.9359 30.6648C45.9359 31.0604 46.553 31.0604 46.553 30.6648C46.553 30.4283 46.553 30.1877 46.553 29.9512C46.553 29.5557 45.9359 29.5557 45.9359 29.9512Z" fill="#46A358"/>
<path d="M47.1701 36.7817C47.1536 37.0712 47.0837 37.3485 46.9767 37.6177C46.915 37.7726 47.0466 37.952 47.1906 37.9928C47.3675 38.0417 47.5074 37.9316 47.5691 37.7808C47.7007 37.4586 47.7666 37.1283 47.7871 36.7817C47.8118 36.3862 47.1947 36.3902 47.1701 36.7817Z" fill="#46A358"/>
<path d="M21.2903 18.8841C21.0805 19.1859 20.8707 19.4876 20.6567 19.7894C20.4305 20.1156 20.9653 20.4214 21.1915 20.0993C21.4013 19.7975 21.6111 19.4958 21.8251 19.194C22.0472 18.8678 21.5124 18.5619 21.2903 18.8841Z" fill="#46A358"/>
<path d="M19.5296 23.3453C19.4514 23.7164 19.3774 24.0874 19.2992 24.4626C19.2211 24.8459 19.8135 25.0131 19.8957 24.6257C19.9739 24.2546 20.0479 23.8836 20.1261 23.5084C20.2043 23.1251 19.6078 22.962 19.5296 23.3453Z" fill="#46A358"/>
<path d="M19.3321 21.1228C19.0071 21.551 18.7644 22.024 18.5999 22.5337C18.4765 22.9088 19.073 23.0679 19.1964 22.6968C19.3486 22.236 19.5748 21.8201 19.8669 21.4327C20.1055 21.1146 19.5666 20.8129 19.3321 21.1228Z" fill="#46A358"/>
<path d="M18.0774 25.1803C18.0034 25.69 17.9252 26.1957 17.8512 26.7054C17.7936 27.0887 18.3901 27.2559 18.4477 26.8685C18.5217 26.3588 18.5999 25.8531 18.6739 25.3434C18.7315 24.956 18.135 24.7888 18.0774 25.1803Z" fill="#46A358"/>
<path d="M18.6945 28.1163C18.641 28.626 18.6739 29.1276 18.7727 29.6292C18.8467 30.0165 19.4432 29.8534 19.3692 29.466C19.2828 29.0175 19.2663 28.5689 19.3157 28.1163C19.3486 27.7248 18.7315 27.7289 18.6945 28.1163Z" fill="#46A358"/>
<path d="M19.2005 31.9902C19.2334 32.296 19.2704 32.6018 19.3033 32.9077C19.3198 33.0708 19.4309 33.2135 19.6119 33.2135C19.7641 33.2135 19.941 33.0749 19.9204 32.9077C19.8875 32.6018 19.8505 32.296 19.8176 31.9902C19.8011 31.827 19.69 31.6843 19.509 31.6843C19.3568 31.6843 19.184 31.823 19.2005 31.9902Z" fill="#46A358"/>
<path d="M18.2008 34.2901C18.4394 34.6775 18.6122 35.0852 18.7192 35.5297C18.8138 35.913 19.4062 35.7499 19.3157 35.3666C19.1964 34.8773 18.9989 34.4124 18.7356 33.9802C18.5258 33.6458 17.9952 33.9557 18.2008 34.2901Z" fill="#46A358"/>
<path d="M19.5173 36.8632C19.5872 37.0345 19.653 37.2017 19.7229 37.373C19.7846 37.5238 19.9286 37.6339 20.1014 37.585C20.2495 37.5442 20.3811 37.3648 20.3153 37.2099C20.2454 37.0386 20.1796 36.8714 20.1096 36.7001C20.0479 36.5492 19.9039 36.4391 19.7312 36.4881C19.5872 36.5248 19.4555 36.7083 19.5173 36.8632Z" fill="#46A358"/>
</g>
<defs>
<clipPath id="clip0_5_1645">
<rect width="68" height="49" fill="white" transform="translate(0 38)"/>
</clipPath>
<clipPath id="clip1_5_1645">
<rect width="35" height="39" fill="white" transform="translate(16)"/>
</clipPath>
</defs>
</svg>
